<svg xmlns="http://www.w3.org/2000/svg" width="120" height="40" viewBox="0 0 120 40">
    <defs>
        <linearGradient id="prefix__a" x1="60.99%" x2="26.536%" y1="4.946%" y2="71.879%">
            <stop offset="0%" stop-color="#00A0FF"/>
            <stop offset="1%" stop-color="#00A1FF"/>
            <stop offset="26%" stop-color="#00BEFF"/>
            <stop offset="51%" stop-color="#00D2FF"/>
            <stop offset="76%" stop-color="#00DFFF"/>
            <stop offset="100%" stop-color="#00E3FF"/>
        </linearGradient>
        <linearGradient id="prefix__b" x1="107.685%" x2="-130.64%" y1="50%" y2="50%">
            <stop offset="0%" stop-color="#FFE000"/>
            <stop offset="41%" stop-color="#FFBD00"/>
            <stop offset="78%" stop-color="orange"/>
            <stop offset="100%" stop-color="#FF9C00"/>
        </linearGradient>
        <linearGradient id="prefix__c" x1="86.271%" x2="-50.18%" y1="30.873%" y2="136.109%">
            <stop offset="0%" stop-color="#FF3A44"/>
            <stop offset="100%" stop-color="#C31162"/>
        </linearGradient>
        <linearGradient id="prefix__d" x1="-18.825%" x2="42.086%" y1="-11.91%" y2="35.079%">
            <stop offset="0%" stop-color="#32A071"/>
            <stop offset="7%" stop-color="#2DA771"/>
            <stop offset="48%" stop-color="#15CF74"/>
            <stop offset="80%" stop-color="#06E775"/>
            <stop offset="100%" stop-color="#00F076"/>
        </linearGradient>
    </defs>
    <g fill="none">
        <path fill="#A6A6A6" d="M110.444 0H9.56c-.367 0-.73 0-1.097.002-.307.002-.612.008-.922.013-.673.008-1.345.067-2.01.177-.663.112-1.305.323-1.906.627-.599.306-1.147.703-1.623 1.178-.478.474-.877 1.021-1.181 1.621-.305.6-.517 1.241-.627 1.904-.112.661-.172 1.33-.18 2.002-.01.306-.01.614-.015.92V31.56c.005.31.006.611.015.922.008.67.068 1.34.18 2.002.11.662.322 1.305.627 1.904.303.598.702 1.143 1.181 1.614.474.477 1.023.875 1.623 1.179.6.304 1.243.517 1.907.63.664.11 1.336.169 2.01.177.31.007.614.011.92.011.367.002.73.002 1.098.002h100.883c.36 0 .727 0 1.087-.002.306 0 .619-.004.924-.01.673-.009 1.343-.068 2.006-.177.666-.115 1.31-.328 1.914-.631.6-.304 1.147-.702 1.621-1.179.478-.473.878-1.017 1.185-1.614.303-.6.512-1.242.621-1.904.112-.662.174-1.331.186-2.002.004-.311.004-.612.004-.922.008-.364.008-.725.008-1.094V9.536c0-.366 0-.73-.008-1.092 0-.306 0-.614-.004-.92-.012-.671-.074-1.34-.186-2.002-.109-.663-.318-1.304-.62-1.904-.62-1.203-1.601-2.182-2.807-2.8-.603-.302-1.248-.514-1.914-.627-.663-.11-1.333-.169-2.006-.176-.305-.005-.618-.011-.924-.013-.36-.002-.727-.002-1.087-.002z"/>
        <path fill="#000" d="M8.577 39.125c-.305 0-.602-.004-.905-.01-.626-.009-1.252-.063-1.87-.164-.577-.099-1.136-.284-1.658-.548-.518-.261-.99-.605-1.398-1.016-.414-.407-.76-.879-1.021-1.397-.265-.521-.448-1.08-.544-1.657-.103-.62-.158-1.247-.166-1.875-.007-.21-.015-.913-.015-.913v-23.1s.009-.692.015-.895c.007-.627.063-1.253.165-1.872.096-.579.28-1.14.544-1.662.261-.518.604-.99 1.016-1.398.411-.412.885-.757 1.403-1.023.521-.263 1.08-.446 1.655-.544C6.418.95 7.046.895 7.675.887l.903-.012h102.84l.913.013c.623.007 1.245.062 1.86.162.581.1 1.145.284 1.672.548 1.039.535 1.884 1.381 2.417 2.42.26.52.441 1.076.535 1.65.104.623.162 1.254.174 1.886.003.284.003.588.003.89.008.375.008.732.008 1.092v20.929c0 .363 0 .718-.008 1.075 0 .325 0 .623-.004.93-.011.621-.069 1.24-.17 1.853-.094.581-.276 1.145-.541 1.67-.264.513-.607.98-1.017 1.386-.408.414-.881.76-1.4 1.023-.525.266-1.088.45-1.669.55-.619.1-1.244.155-1.87.162-.294.007-.6.011-.899.011l-1.084.002-101.76-.002z"/>
        <path fill="#FFF" stroke="#FFF" stroke-width=".5" d="M43.048 11.565c.03.673-.216 1.329-.68 1.816-.523.539-1.249.83-1.998.799-.753.017-1.48-.28-2.006-.817-.544-.528-.843-1.258-.826-2.015-.02-.761.28-1.495.826-2.025.827-.808 2.058-1.04 3.123-.59.327.135.619.343.853.608l-.481.481c-.366-.44-.918-.682-1.49-.653-.572-.003-1.121.228-1.52.639-.4.41-.614.967-.594 1.54-.012.865.497 1.652 1.291 1.996.795.344 1.718.175 2.34-.426.28-.303.444-.695.463-1.108h-1.98v-.653h2.643c.02.135.032.272.036.408zM47.206 9.296L44.755 9.296 44.755 11.021 46.988 11.021 46.988 11.674 44.755 11.674 44.755 13.399 47.206 13.399 47.206 14.071 44.047 14.071 44.047 8.624 47.206 8.624zM50.183 14.071L49.484 14.071 49.484 9.296 47.959 9.296 47.959 8.624 51.745 8.624 51.745 9.296 50.183 9.296zM54.414 14.071L54.414 8.624 55.113 8.624 55.113 14.071zM58.217 14.071L57.518 14.071 57.518 9.296 55.993 9.296 55.993 8.624 59.733 8.624 59.733 9.296 58.217 9.296zM66.823 13.363c-.53.53-1.248.828-1.997.828-.75 0-1.468-.298-1.997-.828-.534-.532-.823-1.262-.799-2.015-.024-.754.265-1.484.799-2.016.519-.545 1.244-.846 1.997-.826.751-.012 1.474.287 1.997.826.528.537.816 1.263.8 2.016.023.753-.266 1.483-.8 2.015h0zm-3.477-.454c.391.396.924.619 1.48.619.556 0 1.09-.223 1.48-.62.406-.415.626-.979.608-1.56.008-.587-.225-1.152-.644-1.562-.391-.396-.924-.619-1.48-.619-.556 0-1.09.223-1.48.62-.393.421-.6.984-.572 1.56-.017.582.202 1.146.608 1.562h0zM68.612 14.071L68.612 8.624 69.456 8.624 72.107 12.864 72.107 12.864 72.107 11.81 72.107 8.624 72.806 8.624 72.806 14.071 72.079 14.071 69.311 9.632 69.311 9.632 69.311 10.676 69.311 14.071z"/>
        <path fill="#FFF" d="M61.858 22.014c-2.136.005-3.864 1.74-3.859 3.876.005 2.136 1.74 3.864 3.877 3.859 2.136-.005 3.863-1.74 3.858-3.877.015-1.03-.39-2.023-1.12-2.75-.73-.728-1.726-1.128-2.756-1.108zm0 6.2c-.96.068-1.863-.459-2.277-1.326-.415-.868-.257-1.901.398-2.605s1.674-.936 2.57-.586c.895.351 1.485 1.214 1.487 2.175.03.602-.185 1.19-.595 1.63-.41.442-.981.699-1.583.712zm-8.461-6.2c-2.136.005-3.863 1.74-3.858 3.876.005 2.136 1.74 3.864 3.876 3.859 2.136-.005 3.863-1.74 3.858-3.877.015-1.03-.389-2.023-1.12-2.75-.73-.728-1.725-1.128-2.756-1.108zm0 6.2c-.96.068-1.862-.459-2.277-1.326-.414-.868-.256-1.901.399-2.605s1.673-.936 2.569-.586c.895.351 1.485 1.214 1.488 2.175.03.602-.186 1.19-.596 1.63-.41.442-.981.699-1.583.712zm-10.059-5.01v1.633h3.922c-.061.77-.381 1.496-.908 2.061-.795.81-1.897 1.246-3.032 1.198-2.406 0-4.357-1.95-4.357-4.357s1.95-4.357 4.357-4.357c1.108-.017 2.178.404 2.978 1.17L47.45 19.4c-1.093-1.081-2.575-1.677-4.113-1.652-2.197-.086-4.266 1.038-5.39 2.928-1.125 1.89-1.125 4.245 0 6.135 1.124 1.89 3.193 3.014 5.39 2.929 1.571.062 3.094-.549 4.185-1.68.954-1.047 1.462-2.424 1.417-3.84.003-.34-.025-.68-.082-1.017h-5.52zm41.133 1.27c-.485-1.426-1.8-2.404-3.304-2.46-1.004-.002-1.964.412-2.652 1.143-.688.73-1.042 1.714-.98 2.715-.016 1.702 1.09 3.212 2.719 3.709 1.627.497 3.388-.137 4.326-1.557l-1.316-.908c-.4.666-1.122 1.07-1.898 1.062-.805.033-1.548-.432-1.87-1.17l5.166-2.134-.191-.4zm-5.265 1.29c-.037-.57.156-1.129.538-1.553.38-.424.917-.676 1.486-.699.596-.038 1.157.284 1.425.817l-3.45 1.434zm-4.194 3.74h1.697V18.156h-1.697v11.348zm-2.778-6.627h-.064c-.521-.568-1.263-.882-2.033-.863-2.06.1-3.68 1.8-3.68 3.863 0 2.063 1.62 3.763 3.68 3.863.779.015 1.525-.318 2.033-.908h.064v.554c0 1.48-.79 2.269-2.061 2.269-.868-.019-1.64-.56-1.952-1.37l-1.47.607c.556 1.398 1.917 2.308 3.422 2.288 1.988 0 3.631-1.17 3.631-4.021V22.24h-1.57v.636zm-1.952 5.337c-1.235-.077-2.196-1.1-2.196-2.337s.961-2.26 2.196-2.338c.587.026 1.14.288 1.53.728.39.44.585 1.02.54 1.605.05.589-.143 1.172-.534 1.614-.391.443-.946.706-1.536.728zm22.141-10.058h-4.067v11.348h1.698V25.2h2.37c1.318.094 2.58-.556 3.267-1.684.689-1.13.689-2.548 0-3.677-.688-1.129-1.949-1.779-3.268-1.684zm0 5.447h-2.37v-3.867h2.407c1.072 0 1.942.87 1.942 1.942 0 1.073-.87 1.943-1.942 1.943l-.037-.018zm10.476-1.625c-1.263-.078-2.452.604-3.023 1.734l1.498.626c.31-.557.917-.88 1.553-.826.435-.05.872.075 1.214.35.341.275.558.675.601 1.112v.109c-.546-.287-1.153-.437-1.77-.436-1.616 0-3.268.908-3.268 2.56.032.71.35 1.375.883 1.846.532.47 1.232.705 1.94.65.867.048 1.693-.375 2.16-1.107h.055v.908h1.634v-4.367c0-1.988-1.507-3.141-3.44-3.141l-.037-.018zm-.209 6.218c-.553 0-1.325-.281-1.325-.962 0-.908.962-1.216 1.816-1.216.539-.014 1.072.118 1.543.38-.118 1.02-.971 1.796-1.997 1.816l-.037-.018zm9.641-5.955l-1.942 4.92h-.055l-2.015-4.92h-1.816l3.023 6.881-1.725 3.822h1.816l4.603-10.703h-1.889zm-15.25 7.263h1.688V18.156H97.08v11.348z"/>
        <path fill="url(#prefix__a)" d="M9.477 9.114c-.289.358-.432.812-.399 1.271v20.08c-.03.464.122.92.427 1.272l.063.072 11.22-11.247v-.273L9.542 9.051l-.064.063z"/>
        <path fill="url(#prefix__b)" d="M24.51 24.31l-3.721-3.748v-.273l3.722-3.749.081.055 4.458 2.523c1.27.717 1.27 1.898 0 2.624l-4.44 2.524-.1.045z"/>
        <path fill="url(#prefix__c)" d="M24.62 24.266l-3.831-3.84-11.312 11.31c.53.472 1.32.499 1.88.064l13.263-7.534"/>
        <path fill="url(#prefix__d)" d="M24.62 16.595L11.357 9.06c-.557-.44-1.35-.418-1.88.054L20.79 20.426l3.83-3.831z"/>
        <path fill="#000" d="M24.51 24.175l-13.153 7.49c-.538.405-1.279.405-1.816 0l-.064.063.064.072c.537.406 1.278.406 1.816 0l13.263-7.534-.11-.091z" opacity=".2"/>
        <path fill="#000" d="M9.477 31.61c-.291-.36-.434-.818-.399-1.28v.136c-.03.463.122.92.427 1.27l.063-.063-.09-.063zM29.05 21.606l-4.54 2.569.082.09 4.458-2.532c.536-.227.905-.728.962-1.307-.115.523-.472.961-.962 1.18z" opacity=".12"/>
        <path fill="#FFF" d="M11.357 9.187L29.05 19.245c.49.219.847.657.962 1.18-.057-.579-.426-1.08-.962-1.307L11.357 9.06c-1.262-.726-2.279-.127-2.279 1.325v.136c0-1.452 1.017-2.051 2.279-1.334z" opacity=".25"/>
    </g>
</svg>
