<svg xmlns="http://www.w3.org/2000/svg" width="56" height="32" viewBox="0 0 56 32">
    <g fill="none" fill-rule="evenodd">
        <rect width="56" height="32" fill="#22337F" rx="3.2"/>
        <path fill="#FFFFFE" d="M33.504 11.14c1.066 0 1.922.23 2.466.442l-.372 2.287-.248-.12c-.507-.215-1.16-.42-2.06-.406-1.077 0-1.575.47-1.576.908-.007.495.583.82 1.545 1.308 1.589.753 2.322 1.664 2.312 2.867-.022 2.189-1.901 3.603-4.793 3.603-1.235-.013-2.424-.268-3.066-.562l.385-2.362.354.168c.905.394 1.49.554 2.592.554.792 0 1.64-.324 1.648-1.03.004-.463-.357-.793-1.429-1.31-1.044-.504-2.428-1.35-2.41-2.866.015-2.05 1.931-3.482 4.652-3.482zm-5.795.183l-1.722 10.55h-2.753l1.722-10.55h2.753zm-11.978.002c.597.023 1.081.221 1.247.89l.965 4.847.288 1.462 2.694-7.192h2.917l-4.334 10.53-2.913.002-2.447-9.163c-.846-.49-1.812-.884-2.892-1.158l.036-.218zM39.635 18.133c.228-.607 1.097-2.95 1.097-2.95-.016.029.227-.61.366-1.006l.185.91s.528 2.518.637 3.046h-2.285zm3.396-6.8h-2.127c-.66 0-1.154.188-1.443.875l-4.087 9.669h2.89s.472-1.301.58-1.587l3.525.006c.082.368.335 1.58.335 1.58h2.554l-2.227-10.542z"/>
    </g>
</svg>
