<svg xmlns="http://www.w3.org/2000/svg" width="120" height="40" viewBox="0 0 120 40">
    <g fill="none">
        <path fill="#A6A6A6" d="M110.444 0H9.56c-.367 0-.73 0-1.097.002-.307.002-.612.008-.922.013-.673.008-1.345.067-2.01.176-.663.113-1.305.324-1.906.627-.599.306-1.147.704-1.623 1.18-.478.473-.877 1.02-1.181 1.62-.305.6-.517 1.24-.627 1.903-.112.662-.172 1.332-.18 2.002-.01.307-.01.615-.015.921V31.56c.005.31.006.61.015.921.008.671.068 1.34.18 2.002.11.663.322 1.306.627 1.905.303.598.702 1.143 1.181 1.614.474.477 1.023.875 1.623 1.179.6.304 1.243.517 1.907.63.664.11 1.336.168 2.01.177.31.007.614.011.92.011.367.002.73.002 1.098.002h100.883c.36 0 .727 0 1.087-.002.306 0 .619-.004.924-.01.673-.01 1.343-.068 2.006-.178.666-.114 1.31-.327 1.914-.63.6-.304 1.147-.702 1.621-1.179.478-.473.878-1.018 1.185-1.614.303-.6.512-1.242.621-1.905.112-.661.174-1.33.186-2.002.004-.31.004-.61.004-.921.008-.364.008-.725.008-1.094V9.536c0-.366 0-.73-.008-1.092 0-.306 0-.614-.004-.92-.012-.672-.074-1.34-.186-2.003-.109-.662-.318-1.303-.62-1.903-.62-1.203-1.601-2.182-2.807-2.8-.603-.302-1.248-.514-1.914-.627-.663-.11-1.333-.169-2.006-.176-.305-.005-.618-.011-.924-.013-.36-.002-.727-.002-1.087-.002z"/>
        <path fill="#000" d="M8.577 39.125c-.305 0-.602-.004-.905-.01-.626-.009-1.252-.063-1.87-.164-.577-.1-1.136-.284-1.658-.548-.518-.261-.99-.605-1.398-1.016-.414-.407-.76-.879-1.021-1.397-.265-.521-.448-1.08-.544-1.657-.103-.62-.158-1.247-.166-1.875-.007-.21-.015-.913-.015-.913v-23.1s.009-.692.015-.895c.007-.628.063-1.253.165-1.872.096-.579.28-1.14.544-1.662.261-.518.604-.99 1.016-1.398.411-.412.885-.757 1.403-1.023.521-.263 1.08-.446 1.655-.544C6.418.95 7.046.895 7.675.887l.903-.012h102.84l.913.013c.623.007 1.245.061 1.86.162.581.099 1.145.284 1.672.548 1.039.535 1.884 1.381 2.417 2.42.26.52.441 1.076.535 1.649.104.624.162 1.255.174 1.887.003.283.003.588.003.89.008.375.008.732.008 1.092v20.929c0 .363 0 .718-.008 1.075 0 .325 0 .623-.004.93-.011.62-.069 1.24-.17 1.853-.094.581-.276 1.145-.541 1.67-.264.513-.607.98-1.017 1.386-.408.414-.881.759-1.4 1.022-.525.266-1.088.452-1.669.55-.619.101-1.244.156-1.87.163-.294.007-.6.011-.899.011l-1.084.002-101.76-.002z"/>
        <g fill="#FFF">
            <path d="M14.936 12.3c.021-1.696.91-3.263 2.356-4.151-.916-1.308-2.395-2.108-3.991-2.158-1.68-.176-3.307 1.005-4.163 1.005-.872 0-2.19-.988-3.608-.958-1.867.06-3.565 1.096-4.473 2.727-1.934 3.349-.492 8.27 1.36 10.977.928 1.325 2.011 2.805 3.428 2.753 1.388-.058 1.906-.885 3.58-.885 1.659 0 2.145.885 3.59.852 1.49-.025 2.427-1.332 3.321-2.67.666-.944 1.179-1.988 1.519-3.092-1.768-.748-2.917-2.48-2.92-4.4zM12.204 4.21c.811-.973 1.211-2.225 1.114-3.49-1.24.13-2.385.723-3.207 1.66-.812.924-1.224 2.133-1.144 3.361 1.257.013 2.45-.55 3.237-1.53z" transform="translate(9.833 8)"/>
            <g>
                <path d="M8.302 9.306H3.57l-1.137 3.357H.427L4.911.245h2.083l4.483 12.418H9.438L8.302 9.306zM4.06 7.757h3.752L5.961 2.31H5.91L4.06 7.757zM21.16 8.136c0 2.814-1.506 4.621-3.779 4.621-1.174.062-2.28-.553-2.848-1.584h-.043v4.485H12.63V3.609h1.8v1.506h.033c.593-1.024 1.7-1.639 2.883-1.6 2.298 0 3.813 1.816 3.813 4.621zm-1.91 0c0-1.833-.948-3.038-2.393-3.038-1.42 0-2.375 1.23-2.375 3.038 0 1.825.955 3.046 2.375 3.046 1.445 0 2.393-1.196 2.393-3.046zM31.125 8.136c0 2.814-1.506 4.621-3.779 4.621-1.174.062-2.28-.553-2.848-1.584h-.043v4.485h-1.859V3.609h1.799v1.506h.034c.593-1.024 1.7-1.639 2.883-1.6 2.298 0 3.813 1.816 3.813 4.621zm-1.91 0c0-1.833-.948-3.038-2.393-3.038-1.42 0-2.375 1.23-2.375 3.038 0 1.825.955 3.046 2.375 3.046 1.445 0 2.392-1.196 2.392-3.046zM37.71 9.203c.138 1.231 1.334 2.04 2.97 2.04 1.566 0 2.693-.809 2.693-1.92 0-.963-.68-1.54-2.29-1.936L39.475 7c-2.28-.551-3.339-1.618-3.339-3.348 0-2.143 1.867-3.614 4.519-3.614 2.624 0 4.423 1.471 4.483 3.614h-1.876c-.112-1.24-1.136-1.987-2.634-1.987-1.497 0-2.521.757-2.521 1.858 0 .878.654 1.395 2.255 1.79l1.368.336c2.548.603 3.606 1.626 3.606 3.442 0 2.324-1.85 3.779-4.794 3.779-2.753 0-4.613-1.421-4.733-3.667h1.902zM49.346 1.466V3.61h1.722v1.472h-1.722v4.99c0 .776.345 1.138 1.102 1.138.204-.004.408-.018.611-.043v1.463c-.34.063-.686.092-1.032.085-1.833 0-2.548-.688-2.548-2.444V5.08h-1.316V3.61h1.316V1.466h1.867zM52.065 8.136c0-2.848 1.678-4.638 4.294-4.638 2.625 0 4.295 1.79 4.295 4.638 0 2.857-1.661 4.64-4.295 4.64-2.633 0-4.294-1.783-4.294-4.64zm6.695 0c0-1.954-.895-3.107-2.401-3.107-1.506 0-2.4 1.162-2.4 3.107 0 1.962.894 3.107 2.4 3.107 1.506 0 2.401-1.145 2.401-3.107zM62.186 3.609h1.773V5.15h.043c.247-.992 1.156-1.675 2.177-1.636.214 0 .428.023.637.07v1.738c-.27-.083-.552-.12-.835-.112-.546-.023-1.075.195-1.447.596-.373.4-.551.943-.49 1.487v5.37h-1.858V3.609zM75.384 10.004c-.25 1.643-1.85 2.771-3.898 2.771-2.634 0-4.269-1.765-4.269-4.596 0-2.84 1.644-4.681 4.19-4.681 2.506 0 4.08 1.72 4.08 4.466V8.6h-6.394v.113c-.06.674.173 1.34.64 1.831.465.491 1.12.758 1.796.733.902.085 1.752-.433 2.09-1.273h1.765zM69.102 7.3h4.526c.034-.605-.186-1.198-.608-1.634-.421-.436-1.006-.676-1.612-.663-.612-.004-1.199.237-1.632.668-.433.432-.676 1.018-.674 1.63z" transform="translate(9.833 8) translate(24.167 9.833)"/>
            </g>
        </g>
        <g fill="#FFF">
            <path d="M2.826.731c.79-.057 1.562.244 2.106.818.544.574.801 1.362.702 2.147 0 1.906-1.03 3.002-2.808 3.002H.671V.73h2.155zM1.598 5.854h1.125c.563.034 1.112-.188 1.494-.605.382-.416.556-.982.473-1.541.077-.556-.1-1.118-.48-1.53-.381-.414-.927-.635-1.487-.604H1.598v4.28zM6.68 4.444c-.077-.807.31-1.588 1-2.015.688-.428 1.56-.428 2.249 0 .689.427 1.076 1.208.999 2.015.078.808-.308 1.591-.998 2.02-.69.428-1.562.428-2.252 0-.69-.429-1.076-1.212-.997-2.02zm3.334 0c0-.976-.439-1.547-1.208-1.547-.773 0-1.207.571-1.207 1.547 0 .984.434 1.55 1.207 1.55.77 0 1.208-.57 1.208-1.55zM16.573 6.698L15.651 6.698 14.721 3.381 14.65 3.381 13.724 6.698 12.811 6.698 11.569 2.195 12.471 2.195 13.277 5.631 13.344 5.631 14.27 2.195 15.122 2.195 16.048 5.631 16.118 5.631 16.921 2.195 17.81 2.195zM18.854 2.195h.855v.715h.066c.231-.527.771-.849 1.344-.802.444-.033.879.137 1.182.463.303.325.442.771.377 1.212v2.915h-.889V4.006c0-.724-.314-1.084-.972-1.084-.3-.014-.593.104-.8.324-.206.22-.307.518-.275.817v2.635h-.888V2.195zM24.094.437L24.982.437 24.982 6.698 24.094 6.698zM26.218 4.444c-.077-.807.31-1.588.999-2.015.689-.428 1.56-.428 2.25 0 .688.427 1.076 1.208.998 2.015.079.808-.308 1.591-.997 2.02-.69.428-1.563.428-2.252 0-.69-.429-1.077-1.212-.998-2.02zm3.333 0c0-.976-.439-1.547-1.208-1.547-.773 0-1.207.571-1.207 1.547 0 .984.434 1.55 1.207 1.55.77 0 1.208-.57 1.208-1.55zM31.4 5.424c0-.81.604-1.278 1.676-1.344l1.22-.07V3.62c0-.475-.315-.744-.922-.744-.497 0-.84.182-.939.5h-.86c.09-.773.818-1.27 1.84-1.27 1.128 0 1.765.563 1.765 1.514v3.077h-.855v-.633h-.07c-.291.462-.808.732-1.353.707-.382.04-.764-.084-1.05-.34-.286-.258-.45-.623-.451-1.008zm2.895-.384v-.377l-1.1.07c-.62.042-.9.253-.9.65 0 .405.351.64.834.64.287.03.572-.059.792-.244.22-.186.355-.452.374-.74zM36.348 4.444c0-1.423.732-2.324 1.87-2.324.574-.026 1.112.281 1.38.79h.067V.437h.888v6.26h-.851v-.71h-.07c-.29.504-.834.806-1.415.785-1.145 0-1.869-.901-1.869-2.328zm.918 0c0 .955.45 1.53 1.203 1.53.75 0 1.212-.583 1.212-1.526 0-.938-.468-1.53-1.212-1.53-.748 0-1.203.58-1.203 1.526zM44.23 4.444c-.077-.807.31-1.588.999-2.015.689-.428 1.56-.428 2.25 0 .688.427 1.075 1.208.998 2.015.079.808-.308 1.591-.997 2.02-.69.428-1.563.428-2.252 0-.69-.429-1.077-1.212-.998-2.02zm3.333 0c0-.976-.438-1.547-1.208-1.547-.772 0-1.207.571-1.207 1.547 0 .984.435 1.55 1.207 1.55.77 0 1.208-.57 1.208-1.55zM49.67 2.195h.855v.715h.066c.231-.527.77-.849 1.344-.802.444-.033.879.137 1.182.463.303.325.442.771.377 1.212v2.915h-.889V4.006c0-.724-.314-1.084-.972-1.084-.3-.014-.593.104-.8.324-.206.22-.307.518-.275.817v2.635h-.889V2.195zM58.515 1.074v1.141h.976v.749h-.976v2.315c0 .472.194.679.637.679.113 0 .226-.008.339-.021v.74c-.16.029-.322.044-.484.046-.988 0-1.381-.348-1.381-1.216V2.964h-.715v-.749h.715V1.074h.89zM60.705.437h.88v2.481h.07c.243-.53.792-.853 1.374-.806.441-.024.87.15 1.17.474.3.325.44.767.38 1.205v2.907h-.889V4.01c0-.72-.335-1.084-.963-1.084-.31-.025-.614.087-.832.307-.219.22-.33.526-.302.835v2.63h-.888V.437zM69.761 5.482c-.249.85-1.07 1.398-1.95 1.303-.601.016-1.178-.233-1.579-.68-.4-.449-.584-1.05-.502-1.645-.08-.596.103-1.198.501-1.65.399-.45.973-.707 1.575-.702 1.253 0 2.009.856 2.009 2.27v.31h-3.18v.05c-.028.334.086.664.315.91.228.246.55.384.884.38.435.052.858-.164 1.072-.546h.855zM66.635 4.03h2.275c.022-.306-.085-.607-.296-.829-.211-.222-.506-.345-.813-.338-.31-.004-.61.118-.829.338-.22.22-.34.518-.337.829z" transform="translate(35 8)"/>
        </g>
    </g>
</svg>
